<?xml version="1.0" encoding="us-ascii" standalone="no"?><svg xmlns="http://www.w3.org/2000/svg" xmlns:xlink="http://www.w3.org/1999/xlink" contentStyleType="text/css" height="575px" preserveAspectRatio="none" style="width:486px;height:575px;background:#FFFFFF;" version="1.1" viewBox="0 0 486 575" width="486px" zoomAndPan="magnify"><defs/><g><!--cluster iterator_pattern--><g id="cluster_iterator_pattern"><path d="M8.5,196 L142.5,196 A3.75,3.75 0 0 1 145,198.5 L152,218.2969 L476.5,218.2969 A2.5,2.5 0 0 1 479,220.7969 L479,565.5 A2.5,2.5 0 0 1 476.5,568 L8.5,568 A2.5,2.5 0 0 1 6,565.5 L6,198.5 A2.5,2.5 0 0 1 8.5,196 " fill="none" style="stroke:#000000;stroke-width:1.5;"/><line style="stroke:#000000;stroke-width:1.5;" x1="6" x2="152" y1="218.2969" y2="218.2969"/><text fill="#000000" font-family="sans-serif" font-size="14" font-weight="bold" lengthAdjust="spacing" textLength="133" x="10" y="210.9951">iterator_pattern</text></g><!--cluster iterator_pattern.dart--><g id="cluster_iterator_pattern.dart"><path d="M32.5,239 L206.5,239 A3.75,3.75 0 0 1 209,241.5 L216,261.2969 L452.5,261.2969 A2.5,2.5 0 0 1 455,263.7969 L455,541.5 A2.5,2.5 0 0 1 452.5,544 L32.5,544 A2.5,2.5 0 0 1 30,541.5 L30,241.5 A2.5,2.5 0 0 1 32.5,239 " fill="none" style="stroke:#000000;stroke-width:1.5;"/><line style="stroke:#000000;stroke-width:1.5;" x1="30" x2="216" y1="261.2969" y2="261.2969"/><text fill="#000000" font-family="sans-serif" font-size="14" font-weight="bold" lengthAdjust="spacing" textLength="173" x="34" y="253.9951">iterator_pattern.dart</text></g><!--cluster dart--><g id="cluster_dart"><path d="M89.5,6 L125.5,6 A3.75,3.75 0 0 1 128,8.5 L135,28.2969 L377.5,28.2969 A2.5,2.5 0 0 1 380,30.7969 L380,169.5 A2.5,2.5 0 0 1 377.5,172 L89.5,172 A2.5,2.5 0 0 1 87,169.5 L87,8.5 A2.5,2.5 0 0 1 89.5,6 " fill="none" style="stroke:#000000;stroke-width:1.5;"/><line style="stroke:#000000;stroke-width:1.5;" x1="87" x2="135" y1="28.2969" y2="28.2969"/><text fill="#000000" font-family="sans-serif" font-size="14" font-weight="bold" lengthAdjust="spacing" textLength="35" x="91" y="20.9951">dart</text></g><!--cluster core--><g id="cluster_core"><path d="M113.5,49 L149.5,49 A3.75,3.75 0 0 1 152,51.5 L159,71.2969 L353.5,71.2969 A2.5,2.5 0 0 1 356,73.7969 L356,145.5 A2.5,2.5 0 0 1 353.5,148 L113.5,148 A2.5,2.5 0 0 1 111,145.5 L111,51.5 A2.5,2.5 0 0 1 113.5,49 " fill="none" style="stroke:#000000;stroke-width:1.5;"/><line style="stroke:#000000;stroke-width:1.5;" x1="111" x2="159" y1="71.2969" y2="71.2969"/><text fill="#000000" font-family="sans-serif" font-size="14" font-weight="bold" lengthAdjust="spacing" textLength="35" x="115" y="63.9951">core</text></g><!--class Item--><g id="elem_Item"><rect codeLine="3" fill="#F1F1F1" height="80.5938" id="Item" rx="2.5" ry="2.5" style="stroke:#181818;stroke-width:0.5;" width="116" x="68" y="447"/><ellipse cx="105.5" cy="463" fill="#ADD1B2" rx="11" ry="11" style="stroke:#181818;stroke-width:1.0;"/><path d="M107.8438,458.6719 C106.9063,458.2344 106.3125,458.0938 105.4375,458.0938 C102.8125,458.0938 100.8125,460.1719 100.8125,462.8906 L100.8125,464.0156 C100.8125,466.5938 102.9219,468.4844 105.8125,468.4844 C107.0313,468.4844 108.1875,468.1875 108.9375,467.6406 C109.5156,467.2344 109.8438,466.7813 109.8438,466.3906 C109.8438,465.9375 109.4531,465.5469 108.9844,465.5469 C108.7656,465.5469 108.5625,465.625 108.375,465.8125 C107.9219,466.2969 107.9219,466.2969 107.7344,466.3906 C107.3125,466.6563 106.625,466.7813 105.8594,466.7813 C103.8125,466.7813 102.5156,465.6875 102.5156,463.9844 L102.5156,462.8906 C102.5156,461.1094 103.7656,459.7969 105.5,459.7969 C106.0781,459.7969 106.6875,459.9531 107.1563,460.2031 C107.6406,460.4844 107.8125,460.7031 107.9063,461.1094 C107.9688,461.5156 108,461.6406 108.1406,461.7656 C108.2813,461.9063 108.5156,462.0156 108.7344,462.0156 C109,462.0156 109.2656,461.875 109.4375,461.6563 C109.5469,461.5 109.5781,461.3125 109.5781,460.8906 L109.5781,459.4688 C109.5781,459.0313 109.5625,458.9063 109.4688,458.75 C109.3125,458.4844 109.0313,458.3438 108.7344,458.3438 C108.4375,458.3438 108.2344,458.4375 108.0156,458.75 L107.8438,458.6719 Z " fill="#000000"/><text fill="#000000" font-family="sans-serif" font-size="14" lengthAdjust="spacing" textLength="34" x="124.5" y="467.8467">Item</text><line style="stroke:#181818;stroke-width:0.5;" x1="69" x2="183" y1="479" y2="479"/><ellipse cx="79" cy="492.6484" fill="none" rx="3" ry="3" style="stroke:#038048;stroke-width:1.0;"/><text fill="#000000" font-family="sans-serif" font-size="14" lengthAdjust="spacing" textLength="88" x="88" y="495.9951">String name</text><ellipse cx="79" cy="508.9453" fill="none" rx="3" ry="3" style="stroke:#038048;stroke-width:1.0;"/><text fill="#000000" font-family="sans-serif" font-size="14" lengthAdjust="spacing" textLength="90" x="88" y="512.292">double price</text><line style="stroke:#181818;stroke-width:0.5;" x1="69" x2="183" y1="519.5938" y2="519.5938"/></g><!--class ShoppingCart--><g id="elem_ShoppingCart"><rect codeLine="8" fill="#F1F1F1" height="96.8906" id="ShoppingCart" rx="2.5" ry="2.5" style="stroke:#181818;stroke-width:0.5;" width="198" x="241" y="282"/><ellipse cx="285.75" cy="298" fill="#ADD1B2" rx="11" ry="11" style="stroke:#181818;stroke-width:1.0;"/><path d="M288.0938,293.6719 C287.1563,293.2344 286.5625,293.0938 285.6875,293.0938 C283.0625,293.0938 281.0625,295.1719 281.0625,297.8906 L281.0625,299.0156 C281.0625,301.5938 283.1719,303.4844 286.0625,303.4844 C287.2813,303.4844 288.4375,303.1875 289.1875,302.6406 C289.7656,302.2344 290.0938,301.7813 290.0938,301.3906 C290.0938,300.9375 289.7031,300.5469 289.2344,300.5469 C289.0156,300.5469 288.8125,300.625 288.625,300.8125 C288.1719,301.2969 288.1719,301.2969 287.9844,301.3906 C287.5625,301.6563 286.875,301.7813 286.1094,301.7813 C284.0625,301.7813 282.7656,300.6875 282.7656,298.9844 L282.7656,297.8906 C282.7656,296.1094 284.0156,294.7969 285.75,294.7969 C286.3281,294.7969 286.9375,294.9531 287.4063,295.2031 C287.8906,295.4844 288.0625,295.7031 288.1563,296.1094 C288.2188,296.5156 288.25,296.6406 288.3906,296.7656 C288.5313,296.9063 288.7656,297.0156 288.9844,297.0156 C289.25,297.0156 289.5156,296.875 289.6875,296.6563 C289.7969,296.5 289.8281,296.3125 289.8281,295.8906 L289.8281,294.4688 C289.8281,294.0313 289.8125,293.9063 289.7188,293.75 C289.5625,293.4844 289.2813,293.3438 288.9844,293.3438 C288.6875,293.3438 288.4844,293.4375 288.2656,293.75 L288.0938,293.6719 Z " fill="#000000"/><text fill="#000000" font-family="sans-serif" font-size="14" lengthAdjust="spacing" textLength="100" x="306.25" y="302.8467">ShoppingCart</text><line style="stroke:#181818;stroke-width:0.5;" x1="242" x2="438" y1="314" y2="314"/><rect fill="none" height="6" style="stroke:#C82930;stroke-width:1.0;" width="6" x="249" y="324.6484"/><text fill="#000000" font-family="sans-serif" font-size="14" lengthAdjust="spacing" textLength="134" x="261" y="330.9951">List&lt;Item&gt; _items</text><ellipse cx="252" cy="343.9453" fill="none" rx="3" ry="3" style="stroke:#038048;stroke-width:1.0;"/><text fill="#000000" font-family="sans-serif" font-size="14" lengthAdjust="spacing" textLength="172" x="261" y="347.292">Iterator&lt;Item&gt; iterator</text><line style="stroke:#181818;stroke-width:0.5;" x1="242" x2="438" y1="354.5938" y2="354.5938"/><ellipse cx="252" cy="368.2422" fill="#84BE84" rx="3" ry="3" style="stroke:#038048;stroke-width:1.0;"/><text fill="#000000" font-family="sans-serif" font-size="14" lengthAdjust="spacing" textLength="104" x="261" y="371.5889">void addItem()</text></g><!--class _ItemIterator--><g id="elem__ItemIterator"><rect codeLine="16" fill="#F1F1F1" height="113.1875" id="_ItemIterator" rx="2.5" ry="2.5" style="stroke:#181818;stroke-width:0.5;" width="160" x="46" y="274"/><ellipse cx="74.95" cy="290" fill="#ADD1B2" rx="11" ry="11" style="stroke:#181818;stroke-width:1.0;"/><path d="M77.2938,285.6719 C76.3563,285.2344 75.7625,285.0938 74.8875,285.0938 C72.2625,285.0938 70.2625,287.1719 70.2625,289.8906 L70.2625,291.0156 C70.2625,293.5938 72.3719,295.4844 75.2625,295.4844 C76.4813,295.4844 77.6375,295.1875 78.3875,294.6406 C78.9656,294.2344 79.2938,293.7813 79.2938,293.3906 C79.2938,292.9375 78.9031,292.5469 78.4344,292.5469 C78.2156,292.5469 78.0125,292.625 77.825,292.8125 C77.3719,293.2969 77.3719,293.2969 77.1844,293.3906 C76.7625,293.6563 76.075,293.7813 75.3094,293.7813 C73.2625,293.7813 71.9656,292.6875 71.9656,290.9844 L71.9656,289.8906 C71.9656,288.1094 73.2156,286.7969 74.95,286.7969 C75.5281,286.7969 76.1375,286.9531 76.6063,287.2031 C77.0906,287.4844 77.2625,287.7031 77.3563,288.1094 C77.4188,288.5156 77.45,288.6406 77.5906,288.7656 C77.7313,288.9063 77.9656,289.0156 78.1844,289.0156 C78.45,289.0156 78.7156,288.875 78.8875,288.6563 C78.9969,288.5 79.0281,288.3125 79.0281,287.8906 L79.0281,286.4688 C79.0281,286.0313 79.0125,285.9063 78.9188,285.75 C78.7625,285.4844 78.4813,285.3438 78.1844,285.3438 C77.8875,285.3438 77.6844,285.4375 77.4656,285.75 L77.2938,285.6719 Z " fill="#000000"/><text fill="#000000" font-family="sans-serif" font-size="14" lengthAdjust="spacing" textLength="97" x="92.05" y="294.8467">_ItemIterator</text><line style="stroke:#181818;stroke-width:0.5;" x1="47" x2="205" y1="306" y2="306"/><rect fill="none" height="6" style="stroke:#C82930;stroke-width:1.0;" width="6" x="54" y="316.6484"/><text fill="#000000" font-family="sans-serif" font-size="14" lengthAdjust="spacing" textLength="123" x="66" y="322.9951">int _currentIndex</text><rect fill="none" height="6" style="stroke:#C82930;stroke-width:1.0;" width="6" x="54" y="332.9453"/><text fill="#000000" font-family="sans-serif" font-size="14" lengthAdjust="spacing" textLength="134" x="66" y="339.292">List&lt;Item&gt; _items</text><ellipse cx="57" cy="352.2422" fill="none" rx="3" ry="3" style="stroke:#038048;stroke-width:1.0;"/><text fill="#000000" font-family="sans-serif" font-size="14" lengthAdjust="spacing" textLength="91" x="66" y="355.5889">Item current</text><line style="stroke:#181818;stroke-width:0.5;" x1="47" x2="205" y1="362.8906" y2="362.8906"/><ellipse cx="57" cy="376.5391" fill="#84BE84" rx="3" ry="3" style="stroke:#038048;stroke-width:1.0;"/><text fill="#000000" font-family="sans-serif" font-size="14" lengthAdjust="spacing" textLength="120" x="66" y="379.8857">bool moveNext()</text></g><!--class Iterable--><g id="elem_Iterable"><rect fill="#F1F1F1" height="48" id="Iterable" rx="2.5" ry="2.5" style="stroke:#181818;stroke-width:0.5;" width="89" x="250.5" y="84"/><ellipse cx="265.5" cy="100" fill="#ADD1B2" rx="11" ry="11" style="stroke:#181818;stroke-width:1.0;"/><path d="M267.8438,95.6719 C266.9063,95.2344 266.3125,95.0938 265.4375,95.0938 C262.8125,95.0938 260.8125,97.1719 260.8125,99.8906 L260.8125,101.0156 C260.8125,103.5938 262.9219,105.4844 265.8125,105.4844 C267.0313,105.4844 268.1875,105.1875 268.9375,104.6406 C269.5156,104.2344 269.8438,103.7813 269.8438,103.3906 C269.8438,102.9375 269.4531,102.5469 268.9844,102.5469 C268.7656,102.5469 268.5625,102.625 268.375,102.8125 C267.9219,103.2969 267.9219,103.2969 267.7344,103.3906 C267.3125,103.6563 266.625,103.7813 265.8594,103.7813 C263.8125,103.7813 262.5156,102.6875 262.5156,100.9844 L262.5156,99.8906 C262.5156,98.1094 263.7656,96.7969 265.5,96.7969 C266.0781,96.7969 266.6875,96.9531 267.1563,97.2031 C267.6406,97.4844 267.8125,97.7031 267.9063,98.1094 C267.9688,98.5156 268,98.6406 268.1406,98.7656 C268.2813,98.9063 268.5156,99.0156 268.7344,99.0156 C269,99.0156 269.2656,98.875 269.4375,98.6563 C269.5469,98.5 269.5781,98.3125 269.5781,97.8906 L269.5781,96.4688 C269.5781,96.0313 269.5625,95.9063 269.4688,95.75 C269.3125,95.4844 269.0313,95.3438 268.7344,95.3438 C268.4375,95.3438 268.2344,95.4375 268.0156,95.75 L267.8438,95.6719 Z " fill="#000000"/><text fill="#000000" font-family="sans-serif" font-size="14" lengthAdjust="spacing" textLength="57" x="279.5" y="104.8467">Iterable</text><line style="stroke:#181818;stroke-width:0.5;" x1="251.5" x2="338.5" y1="116" y2="116"/><line style="stroke:#181818;stroke-width:0.5;" x1="251.5" x2="338.5" y1="124" y2="124"/></g><!--class Iterator--><g id="elem_Iterator"><rect fill="#F1F1F1" height="48" id="Iterator" rx="2.5" ry="2.5" style="stroke:#181818;stroke-width:0.5;" width="88" x="127" y="84"/><ellipse cx="142" cy="100" fill="#ADD1B2" rx="11" ry="11" style="stroke:#181818;stroke-width:1.0;"/><path d="M144.3438,95.6719 C143.4063,95.2344 142.8125,95.0938 141.9375,95.0938 C139.3125,95.0938 137.3125,97.1719 137.3125,99.8906 L137.3125,101.0156 C137.3125,103.5938 139.4219,105.4844 142.3125,105.4844 C143.5313,105.4844 144.6875,105.1875 145.4375,104.6406 C146.0156,104.2344 146.3438,103.7813 146.3438,103.3906 C146.3438,102.9375 145.9531,102.5469 145.4844,102.5469 C145.2656,102.5469 145.0625,102.625 144.875,102.8125 C144.4219,103.2969 144.4219,103.2969 144.2344,103.3906 C143.8125,103.6563 143.125,103.7813 142.3594,103.7813 C140.3125,103.7813 139.0156,102.6875 139.0156,100.9844 L139.0156,99.8906 C139.0156,98.1094 140.2656,96.7969 142,96.7969 C142.5781,96.7969 143.1875,96.9531 143.6563,97.2031 C144.1406,97.4844 144.3125,97.7031 144.4063,98.1094 C144.4688,98.5156 144.5,98.6406 144.6406,98.7656 C144.7813,98.9063 145.0156,99.0156 145.2344,99.0156 C145.5,99.0156 145.7656,98.875 145.9375,98.6563 C146.0469,98.5 146.0781,98.3125 146.0781,97.8906 L146.0781,96.4688 C146.0781,96.0313 146.0625,95.9063 145.9688,95.75 C145.8125,95.4844 145.5313,95.3438 145.2344,95.3438 C144.9375,95.3438 144.7344,95.4375 144.5156,95.75 L144.3438,95.6719 Z " fill="#000000"/><text fill="#000000" font-family="sans-serif" font-size="14" lengthAdjust="spacing" textLength="56" x="156" y="104.8467">Iterator</text><line style="stroke:#181818;stroke-width:0.5;" x1="128" x2="214" y1="116" y2="116"/><line style="stroke:#181818;stroke-width:0.5;" x1="128" x2="214" y1="124" y2="124"/></g><!--reverse link Iterable to ShoppingCart--><g id="link_Iterable_ShoppingCart"><path codeLine="14" d="M303.777,152.006 C311.4,189.359 322.423,243.375 330.305,281.994 " fill="none" id="Iterable-backto-ShoppingCart" style="stroke:#181818;stroke-width:1.0;"/><polygon fill="none" points="296.871,153.176,299.731,132.181,310.589,150.377,296.871,153.176" style="stroke:#181818;stroke-width:1.0;"/></g><!--reverse link _ItemIterator to Item--><g id="link__ItemIterator_Item"><path codeLine="23" d="M126,400.257 C126,416.228 126,432.7 126,446.914 " fill="none" id="_ItemIterator-backto-Item" style="stroke:#181818;stroke-width:1.0;"/><polygon fill="none" points="126,387.021,122,393.021,126,399.021,130,393.021,126,387.021" style="stroke:#181818;stroke-width:1.0;"/></g><!--reverse link Iterator to _ItemIterator--><g id="link_Iterator__ItemIterator"><path codeLine="24" d="M162.173,152.251 C155.066,187.077 145.027,236.27 137.327,273.999 " fill="none" id="Iterator-backto-_ItemIterator" style="stroke:#181818;stroke-width:1.0;"/><polygon fill="none" points="155.411,150.377,166.269,132.181,169.129,153.176,155.411,150.377" style="stroke:#181818;stroke-width:1.0;"/></g><!--SRC=[dP5DQWCn38NtSmenguOoFO09sNGrKBgP0moEBLh3s3Ao4W9DxbxRSHODeJ3PMNzFtvCJ2WJjCKLjSCAeMGinADLrPj4fGUy4QswEMl8pA7MVUREQHQbHqFVmqm6yJi8kV5NX4bewx1U4oCvWTrclF7rJZ5dmFKVN3SE7Ix8j6tSmvocVofwnZRV2JQsKZkGiQ6jBvMLJ8FghjY76oiuwC_QmFG_3isZhdSs5vuRThBaWC9i3CmOPWyNJVtuzjCuIxuaMy7J4Jpn9S_ai2gqwG_tx1oUjKYjF-XVa5m00]--></g></svg>